<svg t="1586837824861" class="icon" viewBox="0 0 1041 1024" version="1.1" xmlns="http://www.w3.org/2000/svg" p-id="2622" width="128" height="128"><path d="M471.927309 740.693428a281.582839 281.582839 0 0 0 82.39784 200.789266 281.292706 281.292706 0 0 0 200.703933 82.431973A281.292706 281.292706 0 0 0 955.733015 941.499761a281.582839 281.582839 0 0 0 82.397839-200.857533c4.061865-157.781281-125.388758-283.187106-283.101772-283.187106-153.702349 0-283.101772 125.405825-283.101773 283.238306z m283.135906 236.066054c-130.201557 0-235.946588-105.762098-235.946588-236.083121 0-130.218623 105.745031-236.083121 235.946588-236.083121 130.218623 0 235.963655 105.864498 235.963655 236.083121 0 130.321023-105.762098 236.083121-235.963655 236.083121zM129.77489 288.921845c0-16.162128 12.834129-29.23519 29.405857-29.23519h460.304913c16.230395 0 29.405857 13.550929 29.405857 29.23519a29.098657 29.098657 0 0 1-29.405857 29.218124H159.180747a29.59359 29.59359 0 0 1-29.405857-29.269324v0.0512z m0 227.191391c0-16.093861 13.124262-29.18399 28.791457-29.18399h266.871378a29.218124 29.218124 0 0 1 0 58.47038L158.54928 545.348426a29.320524 29.320524 0 0 1-28.791457-29.23519z m0 227.259658c0-16.145061 13.209596-29.23519 28.791457-29.235191h201.983933a29.218124 29.218124 0 0 1 0 58.453314H158.54928a29.269324 29.269324 0 0 1-28.791457-29.269323v0.0512zM778.666407 64.836586A64.819178 64.819178 0 0 0 713.642429 0.000341H65.023978C29.115724 0.000341 0 28.945398 0 64.682986v844.509586c0 35.498655 29.064524 64.648512 64.989845 64.648511h391.867603s31.300256 0 31.300256-29.013323c0-28.97919-31.300256-29.405857-31.300256-29.405857H64.989845c-3.635199 0-6.621864-2.969599-6.621864-6.229331V64.631786c0-3.293866 2.935466-6.178131 6.655997-6.178131h648.618451c3.754665 0 6.604798 2.833066 6.604798 6.382931v327.765224s0.375467 29.883723 29.38879 29.525324c29.03039-0.392533 29.03039-29.525323 29.03039-29.525324V64.836586z" p-id="2623"></path><path d="M733.866422 648.533458l51.199983 0 0 238.933254-51.199983 0 0-238.933254Z" p-id="2624"></path><path d="M750.504129 614.396957l36.203855 36.203855-101.974192 101.974192-36.203855-36.203855 101.974192-101.974192Z" p-id="2625"></path><path d="M733.863242 650.600812l36.203855-36.203855 101.974192 101.974192-36.203855 36.203855-101.974192-101.974192Z" p-id="2626"></path></svg>