<?xml version="1.0" standalone="no"?><!DOCTYPE svg PUBLIC "-//W3C//DTD SVG 1.1//EN" "http://www.w3.org/Graphics/SVG/1.1/DTD/svg11.dtd"><svg t="1604886283873" class="icon" viewBox="0 0 1024 1024" version="1.1" xmlns="http://www.w3.org/2000/svg" p-id="7216" xmlns:xlink="http://www.w3.org/1999/xlink" width="48" height="48"><defs><style type="text/css"></style></defs><path d="M793.27 574.183c20.511-41.156 23.742-85.659 23.742-134.61 0-170.91-131.936-311.068-305.3-311.068-173.37 0-305.31 140.137-305.31 311.067 0 48.957 3.23 93.48 23.742 134.638l-115.91 199.468s79.309 29.188 161.292 46.086c54.67 60.864 99.065 126.264 99.065 126.264l108.315-206.912c6.639 0.413 16.294 0 23.038 0 6.746 0 16.427 0.413 23.044 0l115.21 195.86s49.042-54.324 103.69-115.213c81.983-16.893 161.292-46.086 161.292-46.086L793.27 574.183zM367.694 865.85s-38.424-49.361-75.314-85.253C240.056 765.72 171.84 750.64 171.84 750.64l80.644-138.25c42.718 55.75 112.863 108.395 183.781 125.673l-68.57 127.787z m138.25-161.297c-67.488 0-258.463-40.35-264.98-264.98-4.098-141.255 124.029-276.505 264.98-276.505 140.947 0 275.691 135.198 276.505 276.504 1.233 213.652-209.013 264.981-276.505 264.981zM644.2 865.85l-69.13-126.734c70.924-17.277 153.146-70.977 195.86-126.732l80.645 138.255c-0.023-0.032-68.218 15.057-120.541 29.957l-86.834 85.254zM511.71 256.317c-98.775 0-178.842 80.11-178.842 178.935s80.066 178.935 178.842 178.935c98.767 0 178.833-80.11 178.833-178.935s-80.066-178.935-178.833-178.935z m5.758 321.505c-44.374 0-142.38-17.562-149.776-149.769-3.941-70.464 79.235-138.255 149.776-138.255 70.534 0 136.465 79.222 138.25 149.773 2.34 92.601-93.877 138.251-138.25 138.251z m0 0" p-id="7217" fill="#dbdbdb"></path></svg>