<?xml version="1.0" standalone="no"?><!DOCTYPE svg PUBLIC "-//W3C//DTD SVG 1.1//EN" "http://www.w3.org/Graphics/SVG/1.1/DTD/svg11.dtd"><svg t="1604886127283" class="icon" viewBox="0 0 1170 1024" version="1.1" xmlns="http://www.w3.org/2000/svg" p-id="5979" xmlns:xlink="http://www.w3.org/1999/xlink" width="54.84375" height="48"><defs><style type="text/css"></style></defs><path d="M1167.652571 347.282286a52.370286 52.370286 0 0 1-10.24 50.761143L631.954286 993.572571a50.834286 50.834286 0 0 1-12.068572 17.188572 49.005714 49.005714 0 0 1-61.220571 4.608 52.955429 52.955429 0 0 1-16.603429-16.384L12.946286 399.433143a52.443429 52.443429 0 0 1-10.386286-50.761143 54.637714 54.637714 0 0 1 8.045714-16.237714L235.154286 26.331429A49.737143 49.737143 0 0 1 278.674286 0h612.717714a49.517714 49.517714 0 0 1 40.228571 20.48l227.913143 310.564571a50.614857 50.614857 0 0 1 8.045715 16.237715z m-540.525714 394.678857c20.48-19.017143 21.942857-51.492571 3.364572-72.411429L377.709714 383.049143a48.932571 48.932571 0 0 0-70.509714-3.510857c-20.48 19.017143-21.942857 51.419429-3.437714 72.411428l252.928 286.500572a48.859429 48.859429 0 0 0 70.363428 3.510857z m10.971429-80.164572A49.005714 49.005714 0 0 0 708.461714 658.285714l252.781715-286.573714a52.150857 52.150857 0 0 0-3.364572-72.411429 48.932571 48.932571 0 0 0-70.509714 3.584L634.660571 589.458286a52.150857 52.150857 0 0 0 3.364572 72.411428z" p-id="5980" fill="#dbdbdb"></path></svg>