<svg t="1586837885225" class="icon" viewBox="0 0 1024 1024" version="1.1" xmlns="http://www.w3.org/2000/svg" p-id="2860" width="128" height="128"><path d="M860.4 64.5h-701c-35.3 0.1-63.8 28.7-63.9 63.9V895c0.1 35.3 28.7 63.8 63.9 63.9h701c35.3-0.1 63.8-28.7 63.9-63.9V128.4c-0.1-35.2-28.7-63.8-63.9-63.9z m0 830.5l-0.1 0.1H159.4l-0.1-0.1V128.5l0.1-0.1h700.8l0.1 0.1 0.1 766.5z m0 0" p-id="2861"></path><path d="M317.2 288.3H700c17.6 0 32-14.3 32-32s-14.3-32-32-32H317.2c-17.7 0-32 14.3-32 32s14.3 32 32 32z m0 127.7H700c17.6 0 32-14.3 32-32s-14.3-32-32-32H317.2c-17.7 0-32 14.3-32 32 0 17.6 14.3 32 32 32zM445 481.1H317.2c-17.6 0-32 14.3-32 32 0 17.6 14.3 32 32 32H445c17.7 0 32-14.3 32-32s-14.3-32-32-32z m336.6 143.3l-79.5-11.6-35.6-72.1c-4.2-8.5-12.9-13.9-22.4-13.9-9.5 0-18.2 5.4-22.4 13.9l-35.6 72.1-79.5 11.6c-9.4 1.4-17.2 8-20.2 17-2.9 9-0.5 19 6.3 25.6l57.5 56.1-13.6 79.2c-1.6 9.4 2.2 18.9 9.9 24.4 7.7 5.6 17.9 6.3 26.3 1.9l71.1-37.4 71.1 37.4c8.4 4.4 18.6 3.7 26.3-1.9 7.7-5.6 11.5-15.1 9.9-24.4l-13.6-79.2 57.5-56.1c6.8-6.6 9.2-16.6 6.3-25.6-2.6-9-10.4-15.6-19.8-17z m-87.9 72.1c-5.9 5.7-8.6 14-7.2 22.1l7.3 42.3-37.9-20c-7.3-3.8-16-3.8-23.2 0l-37.9 20 7.2-42.3c1.4-8.1-1.3-16.4-7.2-22.1l-30.7-30 42.5-6.2c8.1-1.2 15.2-6.3 18.8-13.7l19-38.5 19 38.5c3.6 7.4 10.7 12.5 18.8 13.7l42.5 6.2-31 30z m0 0" p-id="2862"></path></svg>