<?xml version="1.0" standalone="no"?><!DOCTYPE svg PUBLIC "-//W3C//DTD SVG 1.1//EN" "http://www.w3.org/Graphics/SVG/1.1/DTD/svg11.dtd"><svg t="1604886337280" class="icon" viewBox="0 0 1024 1024" version="1.1" xmlns="http://www.w3.org/2000/svg" p-id="8144" xmlns:xlink="http://www.w3.org/1999/xlink" width="48" height="48"><defs><style type="text/css"></style></defs><path d="M512 35.84C249.4464 35.84 35.84 249.4464 35.84 512c0 40.3968 5.41184 81.65376 16.53248 126.14656l0.26112 0.78848c4.5056 11.27424 14.8224 18.56 26.27072 18.56 1.72032 0 3.456-0.17408 5.15072-0.51712 14.42304-2.8928 21.65248-19.05152 19.08736-31.86688-9.52832-42.87488-14.16192-79.87712-14.16192-113.11616 0-233.25696 189.76256-423.02464 423.02464-423.02464 233.25696 0 423.02464 189.76768 423.02464 423.02464 0 233.26208-189.76768 423.02464-423.02464 423.02464-128.21504 0-247.89504-56.52992-328.20224-154.9056-4.49024-5.98528-12.31872-9.69728-20.4288-9.69728-6.56896 0-12.63104 2.37056-17.11616 6.69696-5.30432 4.15232-8.76032 10.93632-9.28256 18.24256-0.51712 7.24992 1.93024 14.19776 6.72256 19.1232C235.42272 924.86144 369.65376 988.16 512 988.16c262.5536 0 476.16-213.6064 476.16-476.16S774.5536 35.84 512 35.84z" p-id="8145" fill="#dbdbdb"></path><path d="M348.50816 567.17824c-15.6416 0-26.56256 10.92608-26.56256 26.56256 0 15.65184 10.92608 26.5728 26.56256 26.5728h136.92416v75.61216c0 15.6416 10.92608 26.56256 26.56256 26.56256s26.56256-10.92608 26.56256-26.56256v-75.61216h136.92416c15.6416 0 26.56256-10.92608 26.56256-26.5728 0-15.63648-10.92608-26.56256-26.56256-26.56256h-136.92416V497.69472h136.92416c15.6416 0 26.56256-10.92608 26.56256-26.56768s-10.92608-26.56256-26.56256-26.56256h-91.74528l82.33984-106.6752c4.50048-6.00064 6.38464-14.40256 4.91008-21.93408-1.29024-6.58432-5.00224-12.0576-10.4704-15.44704-4.5568-3.32288-10.53696-5.22752-16.45056-5.22752-8.82176 0-16.32768 3.97824-20.64896 10.92608l-106.27584 138.35264h-10.30144L400.41984 306.00704c-4.67456-6.23616-13.056-10.10688-21.8624-10.10688-5.77024 0-11.2128 1.69984-15.3344 4.79232-5.19168 3.89632-8.76032 10.30144-9.79968 17.58208-1.03424 7.28064 0.59904 14.42816 4.54144 19.6864l82.28864 106.60352H348.50816c-15.6416 0-26.56256 10.92608-26.56256 26.56256 0 15.64672 10.92608 26.56768 26.56256 26.56768h136.92416v69.48352H348.50816z" p-id="8146" fill="#dbdbdb"></path></svg>